<svg width="306" height="103" viewBox="0 0 306 103" fill="none" xmlns="http://www.w3.org/2000/svg">
<path d="M9.44531 68.2344L9.48047 67.2148C9.73828 60.207 11.5078 53.5859 14.7891 47.3516C17.8125 41.6562 21.6211 37.0508 26.2148 33.5352C30.7617 30.0664 35.1914 28.332 39.5039 28.332C42.7852 28.332 45.375 29.4687 47.2734 31.7422C48.8906 33.7109 49.6992 36.125 49.6992 38.9844C49.6992 42.4062 48.4453 45.7812 45.9375 49.1094C44.4844 51.0312 42.9375 52.4141 41.2969 53.2578C40.5234 53.6797 39.7969 53.8906 39.1172 53.8906C38.4609 53.8906 37.8516 53.75 37.2891 53.4688C36.7266 53.1875 36.2344 52.8359 35.8125 52.4141C34.9453 51.5 34.5117 50.6797 34.5117 49.9531C34.5117 49.2266 34.6992 48.7227 35.0742 48.4414C38.918 45.6758 41.5312 42.8281 42.9141 39.8984C43.4531 38.7734 43.7227 37.6719 43.7227 36.5938C43.7227 34.3203 42.6445 33.1836 40.4883 33.1836C37.1133 33.1836 33.6328 35.0234 30.0469 38.7031C26.6953 42.1016 23.8828 46.3672 21.6094 51.5C19.2422 56.7734 17.9883 61.6133 17.8477 66.0195L17.8125 67.3555C17.8125 72.6289 18.9258 76.0859 21.1523 77.7266C21.9492 78.3125 22.8984 78.6055 24 78.6055C25.125 78.6055 26.1797 78.4648 27.1641 78.1836C28.1484 77.9023 29.1328 77.5156 30.1172 77.0234C31.7109 76.2031 33.75 74.7852 36.2344 72.7695C36.9844 72.1836 37.6055 72.2656 38.0977 73.0156C38.5195 73.625 38.7305 74.3281 38.7305 75.125C38.7305 76.4609 38.543 77.375 38.168 77.8672C37.8164 78.3359 37.1953 78.8984 36.3047 79.5547C35.4375 80.2109 34.3711 80.8203 33.1055 81.3828C30.1523 82.6953 27.2578 83.3516 24.4219 83.3516C21.5859 83.3516 19.3008 83.0117 17.5664 82.332C15.832 81.6289 14.3672 80.6328 13.1719 79.3438C10.6875 76.625 9.44531 72.9219 9.44531 68.2344ZM74.1328 73.6484C74.1328 75.8047 74.8945 76.8828 76.418 76.8828C77.4727 76.8828 78.3398 76.7188 79.0195 76.3906C79.7227 76.0625 80.1914 75.8984 80.4258 75.8984C80.918 75.8984 81.1641 76.1562 81.1641 76.6719C81.1641 78.6875 80.1094 80.4219 78 81.875C75.7734 83.3984 73.5 83.7734 71.1797 83C69.6562 82.4609 68.5312 81.3008 67.8047 79.5195C67.4531 78.6055 67.2773 77.7734 67.2773 77.0234C67.2773 75.8047 67.3945 74.5156 67.6289 73.1562C65.4492 77.6094 62.7422 80.6797 59.5078 82.3672C58.2188 83.0234 56.8477 83.3516 55.3945 83.3516C53.9414 83.3516 52.6758 83.0586 51.5977 82.4727C50.543 81.8633 49.6406 81.0312 48.8906 79.9766C47.3672 77.7734 46.6758 75.0078 46.8164 71.6797C46.957 67.5078 48.1875 63.418 50.5078 59.4102C52.6406 55.6602 55.3359 52.6016 58.5938 50.2344C61.8516 47.8203 64.8984 46.6133 67.7344 46.6133C70.5703 46.6133 72.8555 47.9141 74.5898 50.5156C76.207 47.9141 77.6367 46.6133 78.8789 46.6133C80.2148 46.6133 81.2227 46.8594 81.9023 47.3516C83.1914 48.2891 83.6484 49.1094 83.2734 49.8125C77.3906 61.8594 74.3672 69.3594 74.2031 72.3125C74.1562 72.7344 74.1328 73.1797 74.1328 73.6484ZM54.6211 73.7891C54.6211 76.6016 55.5234 78.0078 57.3281 78.0078C58.7109 78.0078 60.4102 76.8359 62.4258 74.4922C65.3789 71.0469 67.9922 66.4062 70.2656 60.5703C70.9922 58.7422 71.6016 56.9141 72.0938 55.0859C72 53.4922 71.332 52.3203 70.0898 51.5703C69.668 51.3125 69.0352 51.1836 68.1914 51.1836C67.3711 51.1836 66.3984 51.4883 65.2734 52.0977C64.1719 52.707 63.0938 53.5391 62.0391 54.5938C61.0078 55.6484 60.0352 56.9023 59.1211 58.3555C58.2305 59.7852 57.4453 61.3438 56.7656 63.0312C55.3359 66.6406 54.6211 70.2266 54.6211 73.7891ZM86.1562 82.1562C85.6875 81.8047 85.3125 81.418 85.0312 80.9961C84.75 80.5508 84.5977 80.1758 84.5742 79.8711C84.5508 79.543 84.6094 79.1562 84.75 78.7109C84.9141 78.2422 85.125 77.6797 85.3828 77.0234C90.1641 65.2578 92.5547 57.3594 92.5547 53.3281C92.4844 52.2031 92.0977 51.4062 91.3945 50.9375L90.6914 50.4453C90.4805 50.2812 90.3633 50 90.3398 49.6016C90.3398 49.1797 90.4922 48.7812 90.7969 48.4062C91.1016 48.0312 91.5 47.7031 91.9922 47.4219C93 46.8828 94.0312 46.6133 95.0859 46.6133C96.1641 46.6133 96.9961 46.7305 97.582 46.9648C98.1914 47.1992 98.707 47.5156 99.1289 47.9141C100.02 48.7578 100.465 49.6484 100.465 50.5859C100.488 51.5234 100.383 52.4727 100.148 53.4336C99.9375 54.3945 99.6797 55.3438 99.375 56.2812C99.0703 57.1953 98.7656 58.0742 98.4609 58.918C98.1562 59.7383 97.957 60.3477 97.8633 60.7461C97.6758 61.5664 97.6055 62.082 97.6523 62.293C98.2148 61.8008 98.5547 61.3203 98.6719 60.8516L100.043 58.25C103.09 52.7656 106.066 49.1328 108.973 47.3516C109.816 46.8594 110.824 46.6133 111.996 46.6133C113.191 46.6133 114.152 47.0352 114.879 47.8789C115.605 48.6992 115.98 49.6133 116.004 50.6211C116.051 51.6289 115.98 52.4727 115.793 53.1523C115.629 53.8086 115.371 54.4297 115.02 55.0156C114.246 56.3281 113.309 56.9844 112.207 56.9844C111.902 56.9844 111.621 56.8789 111.363 56.668L110.59 56C109.816 55.3203 109.066 54.9805 108.34 54.9805C107.637 54.9805 106.77 55.4492 105.738 56.3867C104.73 57.3242 103.676 58.5312 102.574 60.0078C98.8711 64.9062 95.8477 70.3906 93.5039 76.4609L91.957 80.5391C91.5586 81.5469 91.207 82.2734 90.9023 82.7188C90.5977 83.1406 90.1406 83.3516 89.5312 83.3516C88.9453 83.3516 88.3477 83.2344 87.7383 83C87.1523 82.7891 86.625 82.5078 86.1562 82.1562ZM134.391 38.3867C133.875 38.9258 133.289 39.3711 132.633 39.7227C131.977 40.0508 131.285 40.2617 130.559 40.3555C129.832 40.4258 129.141 40.3086 128.484 40.0039C127.852 39.6992 127.301 39.2656 126.832 38.7031C125.824 37.5312 125.32 36.3477 125.32 35.1523C125.32 33.957 125.508 33.0664 125.883 32.4805C126.281 31.8711 126.773 31.3789 127.359 31.0039C128.484 30.2773 129.539 29.9141 130.523 29.9141C131.531 29.9141 132.305 29.9844 132.844 30.125C133.406 30.2656 133.922 30.5 134.391 30.8281C135.539 31.6016 136.113 32.5508 136.113 33.6758C136.113 34.7773 135.949 35.7031 135.621 36.4531C135.316 37.1797 134.906 37.8242 134.391 38.3867ZM127.184 76.4258C127.793 76.4258 128.098 76.8242 128.098 77.6211C128.098 78.6758 127.617 79.7656 126.656 80.8906C125.25 82.5312 123.363 83.3516 120.996 83.3516C118.277 83.3516 116.414 82.25 115.406 80.0469C115.031 79.2734 114.844 78.3359 114.844 77.2344C114.844 76.1328 115.031 74.9141 115.406 73.5781C115.805 72.2188 116.285 70.8008 116.848 69.3242C117.434 67.8242 118.066 66.3125 118.746 64.7891L120.609 60.3594C121.969 57.0547 122.648 54.875 122.648 53.8203C122.648 52.7656 122.531 52.0742 122.297 51.7461C122.086 51.3945 121.852 51.125 121.594 50.9375L120.891 50.4453C120.656 50.2812 120.539 50 120.539 49.6016C120.539 49.1797 120.691 48.7812 120.996 48.4062C121.324 48.0312 121.746 47.7031 122.262 47.4219C123.316 46.8828 124.547 46.6133 125.953 46.6133C129.398 46.6133 131.121 47.5156 131.121 49.3203C131.121 51.4297 130.57 53.8438 129.469 56.5625C128.367 59.2578 127.43 61.4375 126.656 63.1016L124.547 67.9531C123 71.5156 122.227 74.082 122.227 75.6523C122.227 76.6836 122.742 77.1992 123.773 77.1992C124.781 77.1992 125.543 77.0703 126.059 76.8125C126.574 76.5547 126.949 76.4258 127.184 76.4258ZM171.129 40.4609C171.129 35.7969 168.047 33.4648 161.883 33.4648C158.016 33.4648 154.102 34.6367 150.141 36.9805C148.992 37.6602 148.09 38.293 147.434 38.8789C146.801 39.4414 146.191 39.7227 145.605 39.7227C145.02 39.7227 144.457 39.582 143.918 39.3008C143.379 38.9961 142.898 38.6211 142.477 38.1758C140.93 36.4648 141.094 34.8125 142.969 33.2188C145.781 30.8047 150.445 29.2461 156.961 28.543C158.273 28.4023 159.938 28.332 161.953 28.332C163.969 28.332 166.09 28.6953 168.316 29.4219C170.566 30.1484 172.453 31.1328 173.977 32.375C177.023 34.8828 178.547 38.082 178.547 41.9727C178.547 46.5898 176.438 50.7969 172.219 54.5938C168.562 57.9219 164.238 60.3008 159.246 61.7305C160.605 62.8555 161.883 64.4727 163.078 66.582L165.891 71.6094C168.352 76.1797 170.555 78.6641 172.5 79.0625C173.18 79.1797 173.883 79.1562 174.609 78.9922C175.336 78.8281 175.805 78.7578 176.016 78.7812C176.25 78.7812 176.402 78.9688 176.473 79.3438C176.566 79.7188 176.473 80.1875 176.191 80.75C175.91 81.3125 175.453 81.8398 174.82 82.332C173.344 83.5039 171.727 84.0195 169.969 83.8789C168.211 83.7617 166.781 83.4102 165.68 82.8242C164.602 82.2148 163.629 81.4531 162.762 80.5391C161.918 79.625 161.156 78.6055 160.477 77.4805C159.82 76.3555 159.211 75.207 158.648 74.0352L157.066 70.5898C156.574 69.4648 156.117 68.5039 155.695 67.707C155.273 66.8867 154.91 66.1484 154.605 65.4922C154.301 64.8125 153.961 64.2031 153.586 63.6641C152.789 62.4453 151.77 61.6719 150.527 61.3438C145.605 74 140.602 81.2188 135.516 83C135.094 83.1641 134.66 83.2461 134.215 83.2461C133.793 83.2461 133.406 83.1641 133.055 83C132.703 82.8594 132.41 82.6719 132.176 82.4375C131.684 81.9922 131.438 81.5 131.438 80.9609C131.438 80.4219 131.613 80.0234 131.965 79.7656C135.48 77.2109 139.383 69.7578 143.672 57.4062L145.781 51.4648C148.195 44.6211 150.234 40.4023 151.898 38.8086C152.484 38.3633 153.094 38.1406 153.727 38.1406C154.359 38.1406 154.91 38.2461 155.379 38.457C155.848 38.6445 156.258 38.8906 156.609 39.1953C157.406 39.8984 157.805 40.6133 157.805 41.3398C157.805 42.0664 157.641 42.7227 157.312 43.3086C157.008 43.8711 156.656 44.668 156.258 45.6992C155.109 48.6992 154.219 51.1016 153.586 52.9062L151.793 57.9688C156.785 57.3125 161.203 55.3555 165.047 52.0977C169.102 48.6758 171.129 44.7969 171.129 40.4609ZM181.219 70.6953C181.312 68.6562 181.652 66.7109 182.238 64.8594C182.824 62.9844 183.609 61.1797 184.594 59.4453C185.578 57.6875 186.727 56.0352 188.039 54.4883C189.375 52.918 190.816 51.5469 192.363 50.375C195.715 47.8672 199.102 46.6133 202.523 46.6133C206.531 46.6133 209.203 48.2656 210.539 51.5703C211.008 52.6953 211.23 54.0312 211.207 55.5781C211.184 57.1016 210.891 58.5195 210.328 59.832C209.766 61.1211 208.98 62.3047 207.973 63.3828C206.988 64.4375 205.805 65.3867 204.422 66.2305C203.062 67.0742 201.574 67.7891 199.957 68.375C196.629 69.5469 193.066 70.1562 189.27 70.2031C189.176 70.5312 189.117 71.0234 189.094 71.6797C189.07 72.3359 189.141 73.0742 189.305 73.8945C189.469 74.6914 189.75 75.4062 190.148 76.0391C190.992 77.4453 192.211 78.1484 193.805 78.1484C196.523 78.1484 199.172 77.3516 201.75 75.7578C202.664 75.2188 203.402 74.668 203.965 74.1055C204.551 73.5195 205.055 73.2266 205.477 73.2266C205.898 73.2266 206.262 73.4844 206.566 74C206.895 74.4922 207.059 75.0547 207.059 75.6875C207.059 76.9297 206.707 78.0078 206.004 78.9219C203.051 81.875 198.656 83.3516 192.82 83.3516C189.375 83.3516 186.609 82.3203 184.523 80.2578C182.18 77.9141 181.078 74.7266 181.219 70.6953ZM201.75 51.2891C199.289 51.2891 196.922 52.9766 194.648 56.3516C192.727 59.2578 191.18 62.7031 190.008 66.6875C193.922 66.2891 197.32 64.7422 200.203 62.0469C202.852 59.5156 204.176 57.0898 204.176 54.7695C204.176 52.4492 203.367 51.2891 201.75 51.2891ZM213.141 76.8125C213.141 76.0859 213.293 75.418 213.598 74.8086C213.926 74.1758 214.324 73.6484 214.793 73.2266C215.777 72.3125 216.809 71.8555 217.887 71.8555C218.824 71.8555 219.293 72.3359 219.293 73.2969C219.293 75.7344 220.102 77.4336 221.719 78.3945C222.305 78.7461 222.914 78.9219 223.547 78.9219C224.18 78.9219 224.719 78.8516 225.164 78.7109C225.609 78.5703 226.02 78.3477 226.395 78.043C227.238 77.3633 227.66 76.5547 227.66 75.6172C227.66 74.6797 227.449 73.8242 227.027 73.0508C226.605 72.2539 226.078 71.4219 225.445 70.5547L223.441 67.7422C220.629 63.9922 219.223 60.5352 219.223 57.3711C219.223 54.7461 220.336 52.3672 222.562 50.2344C225.094 47.8203 228.34 46.6133 232.301 46.6133C235.77 46.6133 238.477 47.4688 240.422 49.1797C242.016 50.5625 242.812 52.1445 242.812 53.9258C242.812 55.7773 242.109 57.2539 240.703 58.3555C239.438 59.3398 238.172 59.7031 236.906 59.4453C236.344 59.3281 235.91 59.0469 235.605 58.6016C235.301 58.1328 235.242 57.6055 235.43 57.0195C235.617 56.4336 235.711 55.8242 235.711 55.1914C235.711 54.5586 235.594 53.9727 235.359 53.4336C235.125 52.8945 234.809 52.4375 234.41 52.0625C233.59 51.2891 232.723 50.9023 231.809 50.9023C230.918 50.9023 230.18 51.0078 229.594 51.2188C229.008 51.4062 228.492 51.6875 228.047 52.0625C227.133 52.9062 226.676 53.9492 226.676 55.1914C226.676 56.4102 226.887 57.4648 227.309 58.3555C227.73 59.2461 228.246 60.1367 228.855 61.0273C229.488 61.918 230.168 62.8203 230.895 63.7344C231.621 64.6484 232.289 65.6094 232.898 66.6172C234.375 68.9844 235.113 71.0703 235.113 72.875C235.113 74.6562 234.738 76.1562 233.988 77.375C233.238 78.5703 232.266 79.6016 231.07 80.4688C228.516 82.3672 225.656 83.3164 222.492 83.3164C219.469 83.3164 217.078 82.5898 215.32 81.1367C213.867 79.918 213.141 78.4766 213.141 76.8125ZM265.805 73.7891C266.484 73.7891 266.824 74.2461 266.824 75.1602C266.824 75.9336 266.59 76.6836 266.121 77.4102C265.488 78.7695 264.223 80.0586 262.324 81.2773C260.168 82.6602 258 83.3516 255.82 83.3516C252.047 83.3516 249.656 81.6641 248.648 78.2891C247.453 74.2812 249.246 65.7852 254.027 52.8008C251.332 52.5664 249.867 52.0977 249.633 51.3945C249.562 51.1836 249.527 50.9609 249.527 50.7266C249.527 50.4688 249.633 50.1758 249.844 49.8477C250.078 49.5195 250.371 49.2031 250.723 48.8984C251.543 48.2188 252.375 47.8789 253.219 47.8789H255.996C258.527 41.9492 260.332 38.5742 261.41 37.7539C261.926 37.3789 262.5 37.1914 263.133 37.1914C263.766 37.1914 264.293 37.2734 264.715 37.4375C265.137 37.6016 265.512 37.8359 265.84 38.1406C266.59 38.8438 266.965 39.6289 266.965 40.4961C266.965 40.9648 266.824 41.5039 266.543 42.1133L263.941 47.7734H264.785C266.238 47.7734 267.41 47.7617 268.301 47.7383C268.301 47.7383 268.969 47.7266 270.305 47.7031C270.75 47.6797 271.301 47.668 271.957 47.668C272.637 47.668 272.977 47.9141 272.977 48.4062C272.977 51.5 269.32 53.0469 262.008 53.0469H261.727L259.336 59.2344C256.641 66.5469 255.293 71.668 255.293 74.5977C255.293 75.418 255.48 76.0625 255.855 76.5312C256.23 76.9766 256.934 77.1992 257.965 77.1992C258.996 77.1992 259.934 77.0234 260.777 76.6719C261.621 76.3203 262.359 75.9336 262.992 75.5117C263.625 75.0664 264.164 74.668 264.609 74.3164C265.078 73.9648 265.477 73.7891 265.805 73.7891ZM274.488 80.6094C273.504 79.6719 272.73 78.4883 272.168 77.0586C271.605 75.6055 271.312 73.8945 271.289 71.9258C271.266 69.957 271.5 67.9648 271.992 65.9492C272.508 63.9336 273.223 61.9883 274.137 60.1133C275.074 58.2383 276.188 56.4805 277.477 54.8398C278.789 53.1992 280.23 51.7695 281.801 50.5508C285.223 47.9258 288.773 46.6133 292.453 46.6133C297.281 46.6133 300.551 48.7344 302.262 52.9766C303.48 56.0469 303.551 59.7617 302.473 64.1211C301.488 68.1289 299.684 71.8086 297.059 75.1602C294.457 78.5117 291.387 80.8906 287.848 82.2969C286.066 83 284.309 83.3516 282.574 83.3516C280.863 83.3516 279.328 83.1289 277.969 82.6836C276.633 82.2383 275.473 81.5469 274.488 80.6094ZM281.203 63.5586C280.5 65.293 279.938 67.0742 279.516 68.9023C279.117 70.7305 278.93 72.4648 278.953 74.1055C278.977 75.7227 279.223 77 279.691 77.9375C280.184 78.8516 280.969 79.3086 282.047 79.3086C283.125 79.3086 284.18 78.9453 285.211 78.2188C286.266 77.4688 287.285 76.4844 288.27 75.2656C289.254 74.0469 290.18 72.6406 291.047 71.0469C291.914 69.4531 292.676 67.7891 293.332 66.0547C294.762 62.2812 295.453 58.9297 295.406 56C295.406 53.4219 294.879 51.7812 293.824 51.0781C293.402 50.7969 292.805 50.6562 292.031 50.6562C291.281 50.6562 290.414 51.0078 289.43 51.7109C288.445 52.3906 287.461 53.3164 286.477 54.4883C285.492 55.6602 284.543 57.0312 283.629 58.6016C282.715 60.1719 281.906 61.8242 281.203 63.5586Z" fill="#c3aa70"/>
<path d="M30.2052 5.23581C28.6659 5.96048 27.447 7.08698 26.6064 8.4288C24.092 7.486 21.2146 7.51875 18.5932 8.75285C15.9719 9.98695 14.1132 12.1839 13.2379 14.7225C11.6693 14.5149 10.0244 14.7366 8.48517 15.4613C4.21475 17.4717 2.38131 22.5644 4.39233 26.836C6.40221 31.1053 11.4961 32.9381 15.7665 30.9277C16.1574 30.7437 16.528 30.5323 16.8758 30.3008L21.2398 39.5703L40.6593 30.4278L36.2954 21.1584C36.6967 21.0372 37.0957 20.8862 37.4866 20.7022C41.757 18.6917 43.5874 13.599 41.5775 9.32978C39.5665 5.05815 34.4756 3.22535 30.2052 5.23581Z" fill="#c3aa70"/>
</svg>
